<?xml version="1.0" standalone="no"?>
<!DOCTYPE svg PUBLIC "-//W3C//DTD SVG 20010904//EN"
 "http://www.w3.org/TR/2001/REC-SVG-20010904/DTD/svg10.dtd">
<svg version="1.0" xmlns="http://www.w3.org/2000/svg"
 width="700.000000pt" height="700.000000pt" viewBox="0 0 700.000000 700.000000"
 preserveAspectRatio="xMidYMid meet">
<metadata>
Created by potrace 1.11, written by Peter Selinger 2001-2013
</metadata>
<g transform="translate(0.000000,700.000000) scale(0.100000,-0.100000)"
fill="#000000" stroke="none">
<path d="M2347 5754 c-1 -1 -38 -4 -82 -8 -377 -29 -776 -174 -1090 -395 -388
-273 -678 -650 -838 -1092 -41 -111 -88 -282 -101 -364 -36 -232 -41 -565 -11
-715 3 -14 7 -39 9 -55 3 -17 7 -42 10 -55 3 -14 8 -38 10 -53 20 -120 109
-369 191 -532 57 -113 186 -319 232 -371 10 -10 36 -42 58 -69 114 -142 353
-349 535 -462 300 -186 646 -300 995 -330 50 -4 779 -7 1620 -7 1612 0 1592
-1 1777 45 370 92 710 340 906 661 110 180 179 364 213 568 16 98 16 332 0
440 -83 545 -457 1004 -973 1191 -169 61 -292 82 -538 94 -137 6 -206 17 -319
51 -143 43 -264 109 -391 212 -106 86 -120 102 -315 367 -82 110 -309 336
-430 425 -269 200 -525 319 -865 400 -41 10 -97 21 -123 25 -27 3 -58 8 -70
11 -56 10 -400 26 -410 18z"/>
</g>
</svg>
